# xmcd
#
# Track frame offsets:
#	187
#	10315
#	29767
#	48382
#	69855
#	89875
#	109307
#	133725
#	155680
#	178477
#
# Disc length: 2663 seconds
#
# Revision: 1
# Processed by: cddbd v1.5PL3 Copyright (c) Steve Scherf et al.
# Submitted via: CDex 1.50Beta5
#
DISCID=950a650a
DTITLE=大城光恵 - 海へ行こうよ
DYEAR=1900
DGENRE=Pop
TTITLE0=一緒に歩いてゆける
TTITLE1=はだしの果実
TTITLE2=彼女
TTITLE3=雨がやんでも
TTITLE4=もう大丈夫
TTITLE5=ごはんを食べたら
TTITLE6=パパラギの詩
TTITLE7=水色の冒険
TTITLE8=青年よ大志を抱け
TTITLE9=のらびととウクレレ
EXTD=
EXTT0=
EXTT1=
EXTT2=
EXTT3=
EXTT4=
EXTT5=
EXTT6=
EXTT7=
EXTT8=
EXTT9=
PLAYORDER=
